<svg xmlns="http://www.w3.org/2000/svg" viewBox="0 0 468.11 468.11"><defs><style>.cls-1{fill:#fed35b;}.cls-2{opacity:0.1;}.cls-2,.cls-4,.cls-5{isolation:isolate;}.cls-3,.cls-5{fill:#19282f;}.cls-4{fill:#467082;}.cls-4,.cls-5{opacity:0.25;}</style></defs><title>Asset 1</title><g id="Layer_2" data-name="Layer 2"><g id="Layer_1-2" data-name="Layer 1"><circle class="cls-1" cx="234.06" cy="234.06" r="234.06"/><path class="cls-2" d="M311.84,74.05c-15.94-7.61-37-13.39-64.36-14.82-78.3-4.13-120,30.94-137.69,66s-8.23,96.48,10.31,118.27,14.45,57.35,14.45,57.35L294,460.32c100.2-26.49,174.07-117.74,174.07-226.26,0-3.95-.1-7.86-.29-11.76L345.45,99.94C338.61,91.09,327.79,81.65,311.84,74.05Z"/><path class="cls-3" d="M239.28,391.42,194,359.73s-1.81-56.14,14.49-68.81,17.2-56.14,14.49-72.44c0,0-8.47-24-34-19.48s-23.09,33.4-22.67,48.65-18.56,44.53-31.75,53.18c0,0,4.12-35.57-14.43-57.36s-28-83.22-10.31-118.27,59.37-70.08,137.7-66,105.13,43.7,107.61,60.6-14.84,33-14.84,33-21.44-14.43-40-13.61c0,0,2.47,34.63-42.06,53.6l-3.71,48.23,54.42,57.72s20.62-19.37,31.34-19.37,21.85,10.3,21.85,18.14,1.65,14.84-7.84,24.32c0,0-2.88-10.72-5.77-7.83s-7.83,9.89-2.88,23.5,8.65,39.16-4.13,62.25S283,396.89,268.11,392,239.28,391.42,239.28,391.42Z"/><path class="cls-3" d="M367.6,260.22a25.61,25.61,0,0,0-1.36-5c-.53-1.63-1.23-3.15-1.86-4.71-2.68-6.16-5.86-12-9.07-17.85-2.89-5.16-5.92-10.22-9-15.26A26,26,0,0,0,353.9,214a9.74,9.74,0,0,0,3.78-4.56,6.84,6.84,0,0,0,.33-3.1,19.53,19.53,0,0,0-.42-2.66c-.68-3.37-1.55-6.6-2.4-9.86s-1.78-6.47-2.73-9.69c-1.87-6.44-3.86-12.83-5.9-19.21s-4.15-12.75-6.42-19c1.55,6.52,3.27,13,4.85,19.5l5,19.44c1.56,6.48,3.35,13,4.53,19.44.29,1.65.56,3.11.16,4.12a6.6,6.6,0,0,1-2.61,3,25.84,25.84,0,0,1-8.65,3.44l-2.35.52,1.27,2c3.53,5.57,6.95,11.25,10.27,17s6.55,11.48,9.44,17.37a46.13,46.13,0,0,1,3.43,9,15.33,15.33,0,0,1,.09,4.65,14.63,14.63,0,0,1-1.22,4.52,17.72,17.72,0,0,1-6.33,7.07,64.26,64.26,0,0,1-8.59,4.91,51.29,51.29,0,0,0,9.08-4.17,18.93,18.93,0,0,0,7.29-7.09,15.73,15.73,0,0,0,1.65-5A17,17,0,0,0,367.6,260.22Z"/><path class="cls-4" d="M175,96.37c-17.34,7.26-33.58,17.85-45.43,32.45s-19,33.46-17.47,52.2a96,96,0,0,1,25.42-36.16,102.44,102.44,0,0,0-2.24,86.34,68.29,68.29,0,0,1,20.38-59.53l-1.74,64.86c-3.4-14.71-3.85-30.54,1.71-44.58s17.9-25.93,32.83-28.2,31.56,7,35.14,21.66L239.4,153q.81,12.8,1.6,25.6a88.37,88.37,0,0,1,38.23-48.27c18.14-10.9,38.44-13.68,59.19-11.45-24.36-11.69-45.87-26-73.17-31.24C235.16,81.87,203.33,84.53,175,96.37Z"/><path class="cls-5" d="M153.66,131.35A159.31,159.31,0,0,1,270.41,104.8a55.51,55.51,0,0,0-38.53,41.67,14.74,14.74,0,0,1-2.64-16.61A130.79,130.79,0,0,1,203.13,150c-5.85-4.69-14.14-5.35-21.41-3.52s-13.79,5.81-20.17,9.75l-3.81,2.35L155,160.23l-13.54,8.35a127.05,127.05,0,0,1,8.9-16.49,64.18,64.18,0,0,1,45.37-27.49,57.2,57.2,0,0,0-51.09,18,30.93,30.93,0,0,1,16.11-18.75"/><path class="cls-4" d="M335.47,324.47l4.07,45.28c.39,4.36.77,8.86-.57,13s-4.82,8-9.19,8.26c-5.54.37-9.74-4.59-13.73-8.46-16-15.51-43.54-17.2-61.32-3.75a32.6,32.6,0,0,1,31.59-17.2,41.14,41.14,0,0,0-44,3l11.52-19.83L236.56,361q3-13.06,6.05-26.13a32.62,32.62,0,0,0-20.18,21.74,52.67,52.67,0,0,1,4.79-45.7,44,44,0,0,0-11.76,30.68c-6-7.23-5.81-17.95-2.75-26.85S221.23,298,225,289.39c7.15-16.23,8.13-34.46,7.88-52.19l14,34.89q.21-9.21.41-18.41a272.59,272.59,0,0,1,24,62.21q2.61-13,5.2-25.94l12,20.65q1.92-3.14,3.85-6.27,7,11.64,14.05,23.26c2.85-22.26,25-40.24,47.37-38.44,2.3,1.1,2.06,4.72.27,6.54s-4.42,2.44-6.8,3.37c-13.17,5.19-18.8,23.72-10.74,35.36"/><path class="cls-3" d="M237.91,325.4a48.18,48.18,0,0,0,15.7-19.81q-.2,11.34-.4,22.68c0,1.26,0,2.66.87,3.58,1.13,1.21,3.07,1,4.7.7L282.89,328,278.6,344.2a27.92,27.92,0,0,1,32.57,2.3c6.39,5.56,9.79,13.72,13,21.57a130.73,130.73,0,0,1-3.84-43.42,9.13,9.13,0,0,1-5.15,9.26c-3.52,1.59-7.76.7-11-1.32s-5.82-5-8.28-8q-1.79,5.06-3.56,10.1l-2.82-16.6L273.57,324c-4,1.48-8.84,2.84-12.18.2-2.29-1.8-3-4.91-3.6-7.77q-2.09-10.23-4.16-20.46-3.57,4.11-7.15,8.2c-.92,0-4.74-10.87-5.63-12.05-2.1,4.07-1.3,11.52-1.65,16.17Z"/></g></g></svg>